<?xml version="1.0" encoding="UTF-8" ?>
<!DOCTYPE svg PUBLIC "-//W3C//DTD SVG 1.1//EN" "http://www.w3.org/Graphics/SVG/1.1/DTD/svg11.dtd">
<svg width="400pt" height="90pt" viewBox="0 0 400 90" version="1.1" xmlns="http://www.w3.org/2000/svg">
<g id="#ffffffff">
<path fill="#ffffff" opacity="1.00" d=" M 15.14 60.00 C 24.00 51.12 32.88 42.25 41.75 33.38 C 42.46 34.09 43.17 34.80 43.87 35.51 C 35.71 43.67 27.54 51.83 19.39 60.00 C 27.56 68.23 35.83 76.36 43.96 84.65 C 43.44 85.16 42.42 86.19 41.91 86.71 C 32.92 77.87 24.06 68.90 15.14 60.00 Z" />
<path fill="#ffffff" opacity="1.00" d=" M 78.06 33.28 C 87.08 42.10 95.92 51.10 104.86 60.00 C 96.00 68.87 87.13 77.74 78.26 86.61 C 77.73 86.09 76.66 85.06 76.13 84.54 C 84.24 76.32 92.47 68.20 100.61 60.00 C 92.47 51.87 84.37 43.69 76.17 35.60 C 76.80 34.82 77.43 34.05 78.06 33.28 Z" />
</g>
<g id="#cccccccc">
<path fill="#cccccc" opacity="0.80" d=" M 135.14 60.00 C 144.07 51.10 152.93 42.12 161.92 33.28 C 162.56 34.05 163.19 34.82 163.83 35.59 C 155.64 43.69 147.54 51.86 139.39 60.00 C 147.56 68.24 155.84 76.36 163.96 84.65 C 163.44 85.16 162.42 86.19 161.90 86.71 C 152.92 77.87 144.06 68.90 135.14 60.00 Z" />
<path fill="#cccccc" opacity="0.80" d=" M 196.17 35.60 C 196.80 34.83 197.43 34.05 198.07 33.28 C 207.08 42.11 215.93 51.10 224.86 60.00 C 216.00 68.87 207.13 77.74 198.26 86.60 C 197.73 86.09 196.66 85.07 196.12 84.56 C 204.22 76.31 212.47 68.21 220.61 60.00 C 212.46 51.87 204.37 43.68 196.17 35.60 Z" />
</g>
<g id="#4d4d4d4d">
<path fill="#4d4d4d" opacity="0.30" d=" M 255.16 60.01 C 264.05 51.10 272.89 42.13 281.90 33.34 C 282.38 33.85 283.34 34.87 283.82 35.38 C 275.89 43.77 267.50 51.72 259.44 59.99 C 267.54 68.21 275.72 76.36 283.93 84.48 C 283.23 85.21 282.53 85.93 281.83 86.65 C 272.89 77.82 264.03 68.90 255.16 60.01 Z" />
<path fill="#4d4d4d" opacity="0.30" d=" M 316.18 35.59 C 316.80 34.83 317.43 34.07 318.06 33.31 C 327.10 42.09 335.92 51.10 344.84 60.00 C 335.98 68.88 327.16 77.78 318.22 86.58 C 317.67 86.12 316.58 85.19 316.03 84.72 C 324.05 76.33 332.47 68.32 340.56 59.99 C 332.48 51.81 324.31 43.71 316.18 35.59 Z" />
</g>
</svg>
